# xmcd
#
# Track frame offsets:
#	150
#	15036
#	32438
#	46161
#	63948
#	76385
#	92357
#	108033
#	122578
#	136808
#
# Disc length: 2017 seconds
#
# Revision: 1
# Processed by: cddbd v1.5PL3 Copyright (c) Steve Scherf et al.
# Submitted via: audiograbber 1.80
#
DISCID=5f07df0a
DTITLE=LOS BUKIS - LOS YONIC'S - Como Te Extraño 70's and 80's
DYEAR=1900
DGENRE=
TTITLE0=Cuatro Lagrimas
TTITLE1=Mi Forma De Sentir
TTITLE2=Pero Acuerdate De Mi
TTITLE3=Yo Comense La Broma
TTITLE4=Dejame Si Estoy LLorando
TTITLE5=Con La Misma Espina
TTITLE6=El Reloj
TTITLE7=Vals De Las Mariposas
TTITLE8=Hoy Te Quero Tanto Tanto
TTITLE9=Yo Se Que Te Acordaras
EXTD=
EXTT0=
EXTT1=
EXTT2=
EXTT3=
EXTT4=
EXTT5=
EXTT6=
EXTT7=
EXTT8=
EXTT9=
PLAYORDER=
